<mxfile host="app.diagrams.net" agent="Mozilla/5.0 (Macintosh; Intel Mac OS X 10_15_7) AppleWebKit/605.1.15 (KHTML, like Gecko) Version/17.1 Safari/605.1.15" version="24.7.7">
  <diagram name="Страница — 1" id="MbymF-Uz9F0aMMwsAcCr">
    <mxGraphModel dx="2024" dy="1936" grid="1" gridSize="9" guides="1" tooltips="1" connect="1" arrows="1" fold="1" page="1" pageScale="1" pageWidth="827" pageHeight="1169" math="0" shadow="0">
      <root>
        <mxCell id="0" />
        <mxCell id="1" parent="0" />
        <mxCell id="vXY4q1j1rbLwvdAFuo71-1" value="Авторизованный&lt;div&gt;пользователь&lt;/div&gt;" style="shape=umlActor;verticalLabelPosition=bottom;verticalAlign=top;html=1;outlineConnect=0;" parent="1" vertex="1">
          <mxGeometry x="200" y="220" width="30" height="60" as="geometry" />
        </mxCell>
        <mxCell id="vXY4q1j1rbLwvdAFuo71-3" value="Гость&lt;br&gt;&lt;div&gt;&lt;br&gt;&lt;/div&gt;" style="shape=umlActor;verticalLabelPosition=bottom;verticalAlign=top;html=1;outlineConnect=0;" parent="1" vertex="1">
          <mxGeometry x="20" y="220" width="30" height="60" as="geometry" />
        </mxCell>
        <mxCell id="vXY4q1j1rbLwvdAFuo71-5" value="Участник&amp;nbsp;&lt;div&gt;дома&lt;/div&gt;" style="shape=umlActor;verticalLabelPosition=bottom;verticalAlign=top;html=1;outlineConnect=0;" parent="1" vertex="1">
          <mxGeometry x="430" y="220" width="30" height="60" as="geometry" />
        </mxCell>
        <mxCell id="vXY4q1j1rbLwvdAFuo71-6" value="Владелец&amp;nbsp;&lt;div&gt;дома&lt;/div&gt;" style="shape=umlActor;verticalLabelPosition=bottom;verticalAlign=top;html=1;outlineConnect=0;" parent="1" vertex="1">
          <mxGeometry x="250" y="35" width="30" height="60" as="geometry" />
        </mxCell>
        <mxCell id="vXY4q1j1rbLwvdAFuo71-9" value="" style="endArrow=none;dashed=1;html=1;rounded=0;startArrow=classic;startFill=1;endFill=0;" parent="1" source="vXY4q1j1rbLwvdAFuo71-1" target="vXY4q1j1rbLwvdAFuo71-5" edge="1">
          <mxGeometry width="50" height="50" relative="1" as="geometry">
            <mxPoint x="260" y="260" as="sourcePoint" />
            <mxPoint x="410" y="260" as="targetPoint" />
          </mxGeometry>
        </mxCell>
        <mxCell id="vXY4q1j1rbLwvdAFuo71-10" value="" style="endArrow=none;dashed=1;html=1;rounded=0;startArrow=classic;startFill=1;endFill=0;" parent="1" target="vXY4q1j1rbLwvdAFuo71-6" edge="1">
          <mxGeometry width="50" height="50" relative="1" as="geometry">
            <mxPoint x="210" y="210" as="sourcePoint" />
            <mxPoint x="250" y="120" as="targetPoint" />
            <Array as="points">
              <mxPoint x="210" y="65" />
            </Array>
          </mxGeometry>
        </mxCell>
        <mxCell id="vXY4q1j1rbLwvdAFuo71-14" value="" style="endArrow=none;dashed=1;html=1;rounded=0;startArrow=classic;startFill=1;endFill=0;" parent="1" source="vXY4q1j1rbLwvdAFuo71-3" target="vXY4q1j1rbLwvdAFuo71-1" edge="1">
          <mxGeometry width="50" height="50" relative="1" as="geometry">
            <mxPoint x="240" y="260" as="sourcePoint" />
            <mxPoint x="440" y="260" as="targetPoint" />
          </mxGeometry>
        </mxCell>
        <mxCell id="vXY4q1j1rbLwvdAFuo71-17" value="Авторизоваться" style="ellipse;whiteSpace=wrap;html=1;" parent="1" vertex="1">
          <mxGeometry x="-153" y="230" width="120" height="50" as="geometry" />
        </mxCell>
        <mxCell id="vXY4q1j1rbLwvdAFuo71-18" value="Зарегистрироваться" style="ellipse;whiteSpace=wrap;html=1;" parent="1" vertex="1">
          <mxGeometry x="-153" y="300" width="120" height="50" as="geometry" />
        </mxCell>
        <mxCell id="vXY4q1j1rbLwvdAFuo71-21" value="" style="endArrow=classic;html=1;rounded=0;entryX=0.996;entryY=0.445;entryDx=0;entryDy=0;entryPerimeter=0;" parent="1" target="vXY4q1j1rbLwvdAFuo71-17" edge="1">
          <mxGeometry width="50" height="50" relative="1" as="geometry">
            <mxPoint x="18" y="252" as="sourcePoint" />
            <mxPoint x="50" y="230" as="targetPoint" />
            <Array as="points">
              <mxPoint x="-18" y="252" />
            </Array>
          </mxGeometry>
        </mxCell>
        <mxCell id="vXY4q1j1rbLwvdAFuo71-22" value="" style="endArrow=classic;html=1;rounded=0;entryX=1;entryY=0.5;entryDx=0;entryDy=0;" parent="1" target="vXY4q1j1rbLwvdAFuo71-18" edge="1">
          <mxGeometry width="50" height="50" relative="1" as="geometry">
            <mxPoint x="18" y="252" as="sourcePoint" />
            <mxPoint x="50" y="230" as="targetPoint" />
            <Array as="points">
              <mxPoint x="-18" y="252" />
              <mxPoint x="-18" y="324" />
            </Array>
          </mxGeometry>
        </mxCell>
        <mxCell id="vXY4q1j1rbLwvdAFuo71-23" value="Создать дом" style="ellipse;whiteSpace=wrap;html=1;" parent="1" vertex="1">
          <mxGeometry x="40" y="340" width="120" height="50" as="geometry" />
        </mxCell>
        <mxCell id="vXY4q1j1rbLwvdAFuo71-24" value="" style="endArrow=classic;html=1;rounded=0;entryX=0.5;entryY=0;entryDx=0;entryDy=0;" parent="1" target="vXY4q1j1rbLwvdAFuo71-23" edge="1">
          <mxGeometry width="50" height="50" relative="1" as="geometry">
            <mxPoint x="190" y="270" as="sourcePoint" />
            <mxPoint x="-30" y="295" as="targetPoint" />
            <Array as="points">
              <mxPoint x="100" y="270" />
              <mxPoint x="100" y="310" />
            </Array>
          </mxGeometry>
        </mxCell>
        <mxCell id="vXY4q1j1rbLwvdAFuo71-25" value="Изменить&amp;nbsp;&lt;div&gt;имя дома&lt;/div&gt;" style="ellipse;whiteSpace=wrap;html=1;" parent="1" vertex="1">
          <mxGeometry x="440" y="40" width="120" height="50" as="geometry" />
        </mxCell>
        <mxCell id="vXY4q1j1rbLwvdAFuo71-26" value="" style="endArrow=classic;html=1;rounded=0;entryX=0;entryY=0.5;entryDx=0;entryDy=0;" parent="1" source="vXY4q1j1rbLwvdAFuo71-6" target="vXY4q1j1rbLwvdAFuo71-25" edge="1">
          <mxGeometry width="50" height="50" relative="1" as="geometry">
            <mxPoint x="210" y="170" as="sourcePoint" />
            <mxPoint x="260" y="120" as="targetPoint" />
          </mxGeometry>
        </mxCell>
        <mxCell id="vXY4q1j1rbLwvdAFuo71-28" value="" style="endArrow=classic;dashed=1;html=1;rounded=0;startArrow=none;startFill=0;endFill=1;" parent="1" edge="1">
          <mxGeometry width="50" height="50" relative="1" as="geometry">
            <mxPoint x="290" y="80" as="sourcePoint" />
            <mxPoint x="420" y="240" as="targetPoint" />
            <Array as="points">
              <mxPoint x="320" y="80" />
              <mxPoint x="320" y="240" />
            </Array>
          </mxGeometry>
        </mxCell>
        <mxCell id="vXY4q1j1rbLwvdAFuo71-29" value="Добавить&amp;nbsp;&lt;div&gt;нового&amp;nbsp;&lt;/div&gt;&lt;div&gt;участника&lt;/div&gt;" style="ellipse;whiteSpace=wrap;html=1;" parent="1" vertex="1">
          <mxGeometry x="440" y="120" width="120" height="50" as="geometry" />
        </mxCell>
        <mxCell id="vXY4q1j1rbLwvdAFuo71-30" value="Изменить уровень&lt;div&gt;доступа участника&lt;/div&gt;" style="ellipse;whiteSpace=wrap;html=1;" parent="1" vertex="1">
          <mxGeometry x="440" y="-30" width="120" height="50" as="geometry" />
        </mxCell>
        <mxCell id="vXY4q1j1rbLwvdAFuo71-31" value="Удалить дом" style="ellipse;whiteSpace=wrap;html=1;" parent="1" vertex="1">
          <mxGeometry x="440" y="-100" width="120" height="50" as="geometry" />
        </mxCell>
        <mxCell id="vXY4q1j1rbLwvdAFuo71-32" value="" style="endArrow=classic;html=1;rounded=0;entryX=0;entryY=0.5;entryDx=0;entryDy=0;" parent="1" source="vXY4q1j1rbLwvdAFuo71-6" target="vXY4q1j1rbLwvdAFuo71-31" edge="1">
          <mxGeometry width="50" height="50" relative="1" as="geometry">
            <mxPoint x="290" y="75" as="sourcePoint" />
            <mxPoint x="450" y="75" as="targetPoint" />
            <Array as="points">
              <mxPoint x="400" y="65" />
              <mxPoint x="400" y="-75" />
            </Array>
          </mxGeometry>
        </mxCell>
        <mxCell id="vXY4q1j1rbLwvdAFuo71-33" value="" style="endArrow=classic;html=1;rounded=0;entryX=0;entryY=0.5;entryDx=0;entryDy=0;" parent="1" source="vXY4q1j1rbLwvdAFuo71-6" target="vXY4q1j1rbLwvdAFuo71-30" edge="1">
          <mxGeometry width="50" height="50" relative="1" as="geometry">
            <mxPoint x="280" y="70" as="sourcePoint" />
            <mxPoint x="450" y="-59" as="targetPoint" />
            <Array as="points">
              <mxPoint x="400" y="65" />
              <mxPoint x="400" y="-5" />
            </Array>
          </mxGeometry>
        </mxCell>
        <mxCell id="vXY4q1j1rbLwvdAFuo71-34" value="" style="endArrow=classic;html=1;rounded=0;entryX=0;entryY=0.5;entryDx=0;entryDy=0;" parent="1" target="vXY4q1j1rbLwvdAFuo71-29" edge="1">
          <mxGeometry width="50" height="50" relative="1" as="geometry">
            <mxPoint x="280" y="65" as="sourcePoint" />
            <mxPoint x="450" y="5" as="targetPoint" />
            <Array as="points">
              <mxPoint x="400" y="65" />
              <mxPoint x="400" y="145" />
            </Array>
          </mxGeometry>
        </mxCell>
        <mxCell id="vXY4q1j1rbLwvdAFuo71-44" value="Запустить&amp;nbsp;&lt;div&gt;устройство&lt;/div&gt;" style="ellipse;whiteSpace=wrap;html=1;" parent="1" vertex="1">
          <mxGeometry x="620" y="230" width="120" height="50" as="geometry" />
        </mxCell>
        <mxCell id="vXY4q1j1rbLwvdAFuo71-45" value="" style="endArrow=classic;html=1;rounded=0;entryX=0;entryY=0.5;entryDx=0;entryDy=0;" parent="1" target="vXY4q1j1rbLwvdAFuo71-44" edge="1">
          <mxGeometry width="50" height="50" relative="1" as="geometry">
            <mxPoint x="460" y="255" as="sourcePoint" />
            <mxPoint x="440" y="310" as="targetPoint" />
          </mxGeometry>
        </mxCell>
        <mxCell id="vXY4q1j1rbLwvdAFuo71-46" value="Просмотреть&amp;nbsp;&lt;div&gt;историю устройства&lt;/div&gt;" style="ellipse;whiteSpace=wrap;html=1;" parent="1" vertex="1">
          <mxGeometry x="620" y="310" width="120" height="50" as="geometry" />
        </mxCell>
        <mxCell id="vXY4q1j1rbLwvdAFuo71-47" value="Изменить имя&amp;nbsp;&lt;div&gt;устройства&lt;/div&gt;" style="ellipse;whiteSpace=wrap;html=1;" parent="1" vertex="1">
          <mxGeometry x="620" y="160" width="120" height="50" as="geometry" />
        </mxCell>
        <mxCell id="vXY4q1j1rbLwvdAFuo71-48" value="Добавить устройство" style="ellipse;whiteSpace=wrap;html=1;" parent="1" vertex="1">
          <mxGeometry x="620" y="90" width="120" height="50" as="geometry" />
        </mxCell>
        <mxCell id="vXY4q1j1rbLwvdAFuo71-49" value="" style="endArrow=classic;html=1;rounded=0;entryX=0;entryY=0.5;entryDx=0;entryDy=0;" parent="1" target="vXY4q1j1rbLwvdAFuo71-48" edge="1">
          <mxGeometry width="50" height="50" relative="1" as="geometry">
            <mxPoint x="460" y="255" as="sourcePoint" />
            <mxPoint x="630" y="265" as="targetPoint" />
            <Array as="points">
              <mxPoint x="580" y="255" />
              <mxPoint x="580" y="115" />
            </Array>
          </mxGeometry>
        </mxCell>
        <mxCell id="vXY4q1j1rbLwvdAFuo71-50" value="" style="endArrow=classic;html=1;rounded=0;entryX=0;entryY=0.5;entryDx=0;entryDy=0;" parent="1" target="vXY4q1j1rbLwvdAFuo71-47" edge="1">
          <mxGeometry width="50" height="50" relative="1" as="geometry">
            <mxPoint x="460" y="255" as="sourcePoint" />
            <mxPoint x="630" y="131" as="targetPoint" />
            <Array as="points">
              <mxPoint x="580" y="255" />
              <mxPoint x="580" y="185" />
            </Array>
          </mxGeometry>
        </mxCell>
        <mxCell id="vXY4q1j1rbLwvdAFuo71-51" value="" style="endArrow=classic;html=1;rounded=0;entryX=0;entryY=0.5;entryDx=0;entryDy=0;" parent="1" target="vXY4q1j1rbLwvdAFuo71-46" edge="1">
          <mxGeometry width="50" height="50" relative="1" as="geometry">
            <mxPoint x="460" y="255" as="sourcePoint" />
            <mxPoint x="630" y="195" as="targetPoint" />
            <Array as="points">
              <mxPoint x="580" y="255" />
              <mxPoint x="580" y="335" />
            </Array>
          </mxGeometry>
        </mxCell>
        <mxCell id="EEshjHCk14D5gfMpBOoh-1" value="&amp;nbsp;Сменить пароль" style="ellipse;whiteSpace=wrap;html=1;" vertex="1" parent="1">
          <mxGeometry x="-153" y="160" width="120" height="50" as="geometry" />
        </mxCell>
        <mxCell id="EEshjHCk14D5gfMpBOoh-2" value="" style="endArrow=classic;html=1;rounded=0;entryX=1;entryY=0.5;entryDx=0;entryDy=0;" edge="1" parent="1" target="EEshjHCk14D5gfMpBOoh-1">
          <mxGeometry width="50" height="50" relative="1" as="geometry">
            <mxPoint x="18" y="252" as="sourcePoint" />
            <mxPoint x="-31" y="263" as="targetPoint" />
            <Array as="points">
              <mxPoint x="-18" y="252" />
              <mxPoint x="-18" y="185" />
            </Array>
          </mxGeometry>
        </mxCell>
      </root>
    </mxGraphModel>
  </diagram>
</mxfile>
